<svg xmlns="http://www.w3.org/2000/svg" viewBox="-2 -3 47 90" width="94" height="180" style="color:#111111" role="img" aria-label="ASBL — Bitstream logo mark">
  
  <rect x="10" y="0" width="7" height="7" fill="currentColor"></rect>
  <rect x="21.5" y="0.5" width="6" height="6" fill="#ffffff" stroke="currentColor" stroke-width="1"></rect>
  <rect x="32" y="0" width="7" height="7" fill="currentColor"></rect>
  
  <rect x="13.5" y="11.5" width="6" height="6" fill="#ffffff" stroke="currentColor" stroke-width="1"></rect>
  <rect x="24" y="11" width="7" height="7" fill="currentColor"></rect>
  <rect x="35" y="11" width="7" height="7" fill="currentColor"></rect>
  
  <rect x="13" y="22" width="7" height="7" fill="currentColor"></rect>
  <rect x="24" y="22" width="7" height="7" fill="currentColor"></rect>
  <rect x="35.5" y="22.5" width="6" height="6" fill="#ffffff" stroke="currentColor" stroke-width="1"></rect>
  
  <rect x="10.5" y="33.5" width="6" height="6" fill="#ffffff" stroke="currentColor" stroke-width="1"></rect>
  <rect x="21" y="33" width="7" height="7" fill="currentColor"></rect>
  <rect x="32.5" y="33.5" width="6" height="6" fill="#ffffff" stroke="currentColor" stroke-width="1"></rect>
  
  <rect x="4" y="44" width="7" height="7" fill="currentColor"></rect>
  <rect x="15.5" y="44.5" width="6" height="6" fill="#ffffff" stroke="currentColor" stroke-width="1"></rect>
  <rect x="26" y="44" width="7" height="7" fill="currentColor"></rect>
  
  <rect x="1" y="55" width="7" height="7" fill="currentColor"></rect>
  <rect x="12" y="55" width="7" height="7" fill="currentColor"></rect>
  <rect x="23.5" y="55.5" width="6" height="6" fill="#ffffff" stroke="currentColor" stroke-width="1"></rect>
  
  <rect x="1.5" y="66.5" width="6" height="6" fill="#ffffff" stroke="currentColor" stroke-width="1"></rect>
  <rect x="12" y="66" width="7" height="7" fill="currentColor"></rect>
  <rect x="23" y="66" width="7" height="7" fill="currentColor"></rect>
  
  <rect x="4" y="77" width="7" height="7" fill="currentColor"></rect>
  <rect x="15.5" y="77.5" width="6" height="6" fill="#ffffff" stroke="currentColor" stroke-width="1"></rect>
  <rect x="26.5" y="77.5" width="6" height="6" fill="#ffffff" stroke="currentColor" stroke-width="1"></rect>
</svg>