<svg xmlns="http://www.w3.org/2000/svg" viewBox="-5 -11 66 130" width="132" height="260" style="color:var(--accent, #0d8a86)" role="img" aria-label="ASBL — Robot-Arm Helix logo mark">
  
  <rect x="22" y="8" width="15" height="2" fill="currentColor"></rect>
  <rect x="12" y="22" width="37" height="2" fill="currentColor"></rect>
  <rect x="12" y="36" width="37" height="2" fill="currentColor"></rect>
  <rect x="22" y="50" width="15" height="2" fill="currentColor"></rect>
  <rect x="22" y="64" width="15" height="2" fill="currentColor"></rect>
  <rect x="13" y="78" width="37" height="2" fill="currentColor"></rect>
  <rect x="12" y="92" width="37" height="2" fill="currentColor"></rect>
  <rect x="22" y="106" width="15" height="2" fill="currentColor"></rect>
  
  <rect x="15" y="4" width="9" height="9" fill="currentColor"></rect>
  <rect x="7.5" y="18.5" width="8" height="8" fill="#ffffff" stroke="currentColor" stroke-width="1"></rect>
  <rect x="7" y="32" width="9" height="9" fill="currentColor"></rect>
  <rect x="17.5" y="46.5" width="8" height="8" fill="#ffffff" stroke="currentColor" stroke-width="1"></rect>
  <rect x="33" y="60" width="9" height="9" fill="currentColor"></rect>
  <rect x="44.5" y="74.5" width="8" height="8" fill="#ffffff" stroke="currentColor" stroke-width="1"></rect>
  <rect x="44" y="88" width="9" height="9" fill="currentColor"></rect>
  <rect x="33.5" y="102.5" width="8" height="8" fill="#ffffff" stroke="currentColor" stroke-width="1"></rect>
  
  <rect x="11" y="88" width="30" height="10" rx="3" fill="currentColor" transform="rotate(-68.9 11 93)"></rect>
  <rect x="22" y="60" width="21" height="9" rx="2.5" fill="currentColor" transform="rotate(-42.3 22 64.5)"></rect>
  <rect x="41" y="43" width="30" height="8" rx="2.5" fill="currentColor" transform="rotate(-68.9 41 47)"></rect>
  <rect x="49" y="19" width="18" height="7" rx="2" fill="currentColor" transform="rotate(-127.6 49 22.5)"></rect>
  
  <rect x="17" y="59" width="11" height="11" rx="5.5" fill="#ffffff" stroke="currentColor" stroke-width="4"></rect>
  <rect x="32.5" y="45.5" width="11" height="11" rx="5.5" fill="#ffffff" stroke="currentColor" stroke-width="3"></rect>
  <rect x="44.5" y="17.5" width="10" height="10" rx="5" fill="#ffffff" stroke="currentColor" stroke-width="3"></rect>
  
  <rect x="-1" y="99" width="29" height="14" rx="1" fill="currentColor"></rect>
  
  <rect x="33" y="4" width="10" height="10" rx="5" fill="#ffffff" stroke="currentColor" stroke-width="4"></rect>
  <rect x="40" y="1" width="10" height="5" rx="2" fill="currentColor" transform="rotate(-127.65 40 3.5)"></rect>
  <rect x="32" y="7" width="10" height="5" rx="2" fill="currentColor" transform="rotate(-127.65 32 9.5)"></rect>
  
  <rect x="7" y="83" width="12" height="12" rx="6" fill="#ffffff" stroke="currentColor" stroke-width="4"></rect>
  <rect x="5" y="95" width="16" height="14" rx="2" fill="currentColor"></rect>
</svg>