<?xml version="1.0" encoding="UTF-8" standalone="no"?>
<!-- Created with Inkscape (http://www.inkscape.org/) -->

<svg
   version="1.1"
   id="svg1"
   width="2816"
   height="1536"
   viewBox="0 0 2816 1536"
   sodipodi:docname="autSysBio.svg"
   inkscape:version="1.4.4 (dcaf3e7d9e, 2026-05-05)"
   xml:space="preserve"
   xmlns:inkscape="http://www.inkscape.org/namespaces/inkscape"
   xmlns:sodipodi="http://sodipodi.sourceforge.net/DTD/sodipodi-0.dtd"
   xmlns="http://www.w3.org/2000/svg"
   xmlns:svg="http://www.w3.org/2000/svg"><defs
     id="defs1" /><sodipodi:namedview
     id="namedview1"
     pagecolor="#ffffff"
     bordercolor="#000000"
     borderopacity="0.25"
     inkscape:showpageshadow="2"
     inkscape:pageopacity="0.0"
     inkscape:pagecheckerboard="0"
     inkscape:deskcolor="#d1d1d1"
     inkscape:zoom="0.70710678"
     inkscape:cx="1409.9709"
     inkscape:cy="741.75501"
     inkscape:window-width="1854"
     inkscape:window-height="1011"
     inkscape:window-x="66"
     inkscape:window-y="32"
     inkscape:window-maximized="1"
     inkscape:current-layer="g1" /><g
     inkscape:groupmode="layer"
     inkscape:label="Image"
     id="g1"><path
       style="fill:#000000"
       d="m 1295,736.60672 c -31.9275,-18.82513 -44.597,-26.23947 -71,-41.54988 -7.425,-4.30558 -14.7409,-8.70031 -16.2576,-9.76608 l -2.7576,-1.93777 0.2576,-61.53619 0.2576,-61.53618 9,-5.23182 c 4.95,-2.8775 22.275,-13.01535 38.5,-22.52857 40.3843,-23.67857 47.9446,-28.08557 52,-30.31181 l 3.5,-1.92133 12,6.97512 c 6.6,3.83632 25.275,14.74083 41.5,24.23225 16.225,9.49142 33.775,19.74462 39,22.78489 5.225,3.04026 9.8326,6.02115 10.2391,6.6242 0.4065,0.60305 0.6315,28.53179 0.5,62.06388 L 1411.5,683.93485 1392,695.3146 c -25.9253,15.12941 -40.6806,23.75057 -63.472,37.08532 -10.4346,6.10504 -19.6596,11.07474 -20.5,11.04376 -0.8404,-0.031 -6.703,-3.10761 -13.028,-6.83696 z m 50,-22.61305 c 19.525,-11.43131 40.7875,-23.88602 47.25,-27.67712 l 11.75,-6.89292 -0.01,-57.21182 -0.01,-57.21181 -2.7437,-1.59859 c -1.509,-0.87922 -7.9187,-4.65153 -14.2437,-8.38291 -6.325,-3.73138 -20.725,-12.16176 -32,-18.73419 -11.275,-6.57243 -24.55,-14.31803 -29.5,-17.21246 -4.95,-2.89442 -10.9339,-6.32706 -13.2975,-7.62808 l -4.2976,-2.36549 -1.7024,1.06234 c -0.9364,0.58429 -5.9775,3.53422 -11.2025,6.5554 -25.0995,14.51293 -80.6414,47.15561 -81.75,48.04547 l -1.25,1.0034 0.014,55.12755 c 0.01,30.32016 0.261,56.02756 0.5634,57.12756 l 0.5499,2 38.5597,22.5 c 54.4782,31.78857 56.548,32.96801 57.215,32.60422 0.329,-0.17949 16.5733,-9.67924 36.0983,-21.11055 z m -64.5,1.44968 c -14.85,-8.72984 -32.175,-18.89123 -38.5,-22.58086 -6.325,-3.68963 -14.65,-8.57596 -18.5,-10.85851 l -7,-4.15008 v -55.72744 -55.72744 l 40.5,-23.75175 c 22.275,-13.06347 42.8535,-25.07454 45.7301,-26.69128 l 5.2301,-2.93952 6.2699,3.44289 c 10.2925,5.65177 81.0193,47.08205 84.0076,49.20991 l 2.7623,1.96692 v 54.88779 54.8878 l -7.25,4.17782 c -3.9875,2.29779 -10.85,6.32798 -15.25,8.95596 -7.2489,4.32952 -56.3001,33.03593 -66,38.62539 -2.2,1.26773 -4.225,2.26893 -4.5,2.2249 -0.275,-0.044 -12.65,-7.22266 -27.5,-15.9525 z m 73,-13.7257 44,-25.74474 V 622.19006 568.4072 L 1359,545.87279 c -21.175,-12.39393 -41.2898,-24.09909 -44.6996,-26.01147 l -6.1996,-3.47706 -25.3004,14.72488 c -13.9152,8.09868 -33.9629,19.84332 -44.5504,26.09922 L 1219,568.5827 v 53.73635 53.73634 l 28.75,16.72967 c 15.8125,9.20132 35.5,20.73354 43.75,25.62715 8.25,4.89362 15.675,8.93184 16.5,8.97383 0.825,0.042 21.3,-11.50879 45.5,-25.66839 z"
       id="path14" /><path
       style="fill:#000000"
       d="m 1511,738.10672 c -31.9275,-18.82513 -44.597,-26.23947 -71,-41.54988 -7.425,-4.30558 -14.7409,-8.70031 -16.2576,-9.76608 l -2.7576,-1.93777 0.2576,-61.53619 0.2576,-61.53618 9,-5.23182 c 4.95,-2.8775 22.275,-13.01535 38.5,-22.52857 40.3843,-23.67857 47.9446,-28.08557 52,-30.31181 l 3.5,-1.92133 12,6.97512 c 6.6,3.83632 25.275,14.74083 41.5,24.23225 16.225,9.49142 33.775,19.74462 39,22.78489 5.225,3.04026 9.8326,6.02115 10.2391,6.6242 0.4065,0.60305 0.6315,28.53179 0.5,62.06388 L 1627.5,685.43485 1608,696.8146 c -25.9253,15.12941 -40.6806,23.75057 -63.472,37.08532 -10.4346,6.10504 -19.6596,11.07474 -20.5,11.04376 -0.8404,-0.031 -6.703,-3.10761 -13.028,-6.83696 z m 50,-22.61305 c 19.525,-11.43131 40.7875,-23.88602 47.25,-27.67712 l 11.75,-6.89292 -0.01,-57.21182 -0.01,-57.21181 -2.7437,-1.59859 c -1.509,-0.87922 -7.9187,-4.65153 -14.2437,-8.38291 -6.325,-3.73138 -20.725,-12.16176 -32,-18.73419 -11.275,-6.57243 -24.55,-14.31803 -29.5,-17.21246 -4.95,-2.89442 -10.9339,-6.32706 -13.2975,-7.62808 l -4.2976,-2.36549 -1.7024,1.06234 c -0.9364,0.58429 -5.9775,3.53422 -11.2025,6.5554 -25.0995,14.51293 -80.6414,47.15561 -81.75,48.04547 l -1.25,1.0034 0.014,55.12755 c 0.01,30.32016 0.261,56.02756 0.5634,57.12756 l 0.5499,2 38.5597,22.5 c 54.4782,31.78857 56.548,32.96801 57.215,32.60422 0.329,-0.17949 16.5733,-9.67924 36.0983,-21.11055 z m -64.5,1.44968 c -14.85,-8.72984 -32.175,-18.89123 -38.5,-22.58086 -6.325,-3.68963 -14.65,-8.57596 -18.5,-10.85851 l -7,-4.15008 v -55.72744 -55.72744 l 40.5,-23.75175 c 22.275,-13.06347 42.8535,-25.07454 45.7301,-26.69128 l 5.2301,-2.93952 6.2699,3.44289 c 10.2925,5.65177 81.0193,47.08205 84.0076,49.20991 l 2.7623,1.96692 v 54.88779 54.8878 l -7.25,4.17782 c -3.9875,2.29779 -10.85,6.32798 -15.25,8.95596 -7.2489,4.32952 -56.3001,33.03593 -66,38.62539 -2.2,1.26773 -4.225,2.26893 -4.5,2.2249 -0.275,-0.044 -12.65,-7.22266 -27.5,-15.9525 z m 73,-13.7257 44,-25.74474 V 623.69006 569.9072 L 1575,547.37279 c -21.175,-12.39393 -41.2898,-24.09909 -44.6996,-26.01147 l -6.1996,-3.47706 -25.3004,14.72488 c -13.9152,8.09868 -33.9629,19.84332 -44.5504,26.09922 L 1435,570.0827 v 53.73635 53.73634 l 28.75,16.72967 c 15.8125,9.20132 35.5,20.73354 43.75,25.62715 8.25,4.89362 15.675,8.93184 16.5,8.97383 0.825,0.042 21.3,-11.50879 45.5,-25.66839 z"
       id="path15" /><path
       style="fill:#000000"
       d="m 1407.3639,544.81383 c -31.9275,-18.82513 -44.597,-26.23947 -71,-41.54988 -7.425,-4.30558 -14.7409,-8.70031 -16.2576,-9.76608 l -2.7576,-1.93777 0.2576,-61.53619 0.2576,-61.53618 9,-5.23182 c 4.95,-2.8775 22.275,-13.01535 38.5,-22.52857 40.3843,-23.67857 47.9446,-28.08557 52,-30.31181 l 3.5,-1.92133 12,6.97512 c 6.6,3.83632 25.275,14.74083 41.5,24.23225 16.225,9.49142 33.775,19.74462 39,22.78489 5.225,3.04026 9.8326,6.02115 10.2391,6.6242 0.4065,0.60305 0.6315,28.53179 0.5,62.06388 l -0.2391,60.96742 -19.5,11.37975 c -25.9253,15.12941 -40.6806,23.75057 -63.472,37.08532 -10.4346,6.10504 -19.6596,11.07474 -20.5,11.04376 -0.8404,-0.031 -6.703,-3.10761 -13.028,-6.83696 z m 50,-22.61305 c 19.525,-11.43131 40.7875,-23.88602 47.25,-27.67712 l 11.75,-6.89292 -0.01,-57.21182 -0.01,-57.21181 -2.7437,-1.59859 c -1.509,-0.87922 -7.9187,-4.65153 -14.2437,-8.38291 -6.325,-3.73138 -20.725,-12.16176 -32,-18.73419 -11.275,-6.57243 -24.55,-14.31803 -29.5,-17.21246 -4.95,-2.89442 -10.9339,-6.32706 -13.2975,-7.62808 l -4.2976,-2.36549 -1.7024,1.06234 c -0.9364,0.58429 -5.9775,3.53422 -11.2025,6.5554 -25.0995,14.51293 -80.6414,47.15561 -81.75,48.04547 l -1.25,1.0034 0.014,55.12755 c 0.01,30.32016 0.261,56.02756 0.5634,57.12756 l 0.5499,2 38.5597,22.5 c 54.4782,31.78857 56.548,32.96801 57.215,32.60422 0.329,-0.17949 16.5733,-9.67924 36.0983,-21.11055 z m -64.5,1.44968 c -14.85,-8.72984 -32.175,-18.89123 -38.5,-22.58086 -6.325,-3.68963 -14.65,-8.57596 -18.5,-10.85851 l -7,-4.15008 v -55.72744 -55.72744 l 40.5,-23.75175 c 22.275,-13.06347 42.8535,-25.07454 45.7301,-26.69128 l 5.2301,-2.93952 6.2699,3.44289 c 10.2925,5.65177 81.0193,47.08205 84.0076,49.20991 l 2.7623,1.96692 v 54.88779 54.8878 l -7.25,4.17782 c -3.9875,2.29779 -10.85,6.32798 -15.25,8.95596 -7.2489,4.32952 -56.3001,33.03593 -66,38.62539 -2.2,1.26773 -4.225,2.26893 -4.5,2.2249 -0.275,-0.044 -12.65,-7.22266 -27.5,-15.9525 z m 73,-13.7257 44,-25.74474 v -53.78285 -53.78286 l -38.5,-22.53441 c -21.175,-12.39393 -41.2898,-24.09909 -44.6996,-26.01147 l -6.1996,-3.47706 -25.3004,14.72488 c -13.9152,8.09868 -33.9629,19.84332 -44.5504,26.09922 l -19.25,11.37434 v 53.73635 53.73634 l 28.75,16.72967 c 15.8125,9.20132 35.5,20.73354 43.75,25.62715 8.25,4.89362 15.675,8.93184 16.5,8.97383 0.825,0.042 21.3,-11.50879 45.5,-25.66839 z"
       id="path13" /><path
       style="fill:#000000"
       d="m 1260.3754,684.5359 c -0.3668,-0.9558 -0.2436,-2.0298 0.2736,-2.3868 0.5172,-0.357 1.3703,-2.434 1.8957,-4.6155 l 0.9553,-3.9663 3.3979,-2.2837 c 2.0571,-1.3825 4.899,-2.2836 7.2022,-2.2836 h 3.8044 l 0.2978,-16.0858 0.2977,-16.0858 -2.8125,-6.1642 c -1.5469,-3.3903 -5.0797,-11.4358 -7.8508,-17.8788 l -5.0383,-11.7146 -1.8999,-0.603 c -1.0449,-0.3317 -3.0245,-2.0776 -4.3992,-3.8798 L 1254,593.3112 v -7.3104 -7.3105 l 3.9931,-3.79853 3.9931,-3.79856 3.7569,-0.66829 c 4.3867,-0.78032 6.273,-1.85026 24.2265,-13.74134 7.4083,-4.90671 15.1193,-10.7803 17.1357,-13.05243 l 3.6661,-4.13115 h 5.0587 5.0588 l 3.3056,3.15001 c 4.4166,4.20884 27.3536,16.9447 31.9952,17.76552 l 3.6897,0.65248 2.5603,3.04272 2.5603,3.04272 -0.032,4.17328 c -0.017,2.2953 -0.6925,5.04677 -1.5,6.11437 -0.8628,1.1408 -1.4682,4.1302 -1.4682,7.25 V 590 h 2 2 v 4.5 4.5 h 1.411 c 0.7761,0 3.3455,3.7778 5.7098,8.3952 l 4.2988,8.3951 -4.9598,9.5926 -4.9598,9.5926 -2.25,0.012 -2.25,0.012 v -4.0332 c 0,-2.3266 1.0645,-6.134 2.5157,-8.9978 l 2.5157,-4.9645 -2.6486,-4.0022 c -2.7105,-4.0958 -3.7949,-4.7626 -4.8828,-3.0023 -0.3399,0.55 -3.0114,1 -5.9366,1 h -5.3185 l -1.2834,-1.5464 -1.2834,-1.5464 -2.9203,4.4894 -2.9203,4.4894 2.5812,5.1392 c 1.4613,2.9093 2.5813,6.839 2.5813,9.057 V 635 h -2.2885 -2.2885 l -5.1366,-9.5396 -5.1366,-9.5396 4.3869,-8.2104 c 2.4128,-4.5157 4.9666,-8.2104 5.6751,-8.2104 h 1.2882 l 0.3048,-4.75 0.3048,-4.75 h 1.9452 1.9452 v -5.0956 -5.0957 l -1.9842,-2.7865 c -2.4839,-3.48831 -23.1486,-15.03642 -26.8092,-14.98186 l -2.7066,0.0403 -15.5,12.96826 c -17.8717,14.95256 -17.1636,13.70036 -12.4562,22.02856 1.9941,3.5278 6.0777,11.1411 9.0749,16.9184 l 5.4493,10.5041 4.6982,3 c 2.6351,1.6826 5.6869,4.7565 6.9496,7 l 2.2513,4 0.016,15.1199 0.016,15.12004 4.7176,0.5317 4.7175,0.5318 2.7825,3.1141 2.7824,3.1141 V 680.5158 685 l -29.75,0.01 c -16.3625,0 -32.103,0.2913 -34.9789,0.6368 l -5.2289,0.6281 z"
       id="path17" /><path
       style="fill:#000000;stroke-width:0.759709"
       d="m 1480.402,678.74819 c 0,-3.54358 1.4479,-5.75447 4.6605,-7.1162 l 2.521,-1.06857 h 19.312 19.312 l 0.3133,-1.37388 c 0.1724,-0.75563 0.4676,-2.19817 0.6562,-3.2057 3.1182,-16.6622 9.2702,-22.5532 17.9918,-17.22841 l 2.2852,1.39516 4.209,7.61131 c 2.3149,4.1862 4.2127,7.9548 4.2173,8.37456 0.01,0.41984 0.2738,0.76332 0.5981,0.76332 0.3244,0 0.7718,0.82429 0.9942,1.83182 l 0.4044,1.83182 h 5.0332 5.0333 l 2.4516,1.31047 c 2.8184,1.50652 3.6913,3.15538 3.6913,6.9725 v 2.70801 h -46.8422 -46.8422 z m 39.0913,-16.72647 c -2.0388,-0.54917 -4.5607,-1.32486 -5.6043,-1.72384 -1.0435,-0.39899 -2.1808,-0.72544 -2.5274,-0.72544 -0.3466,0 -0.6302,-0.27476 -0.6302,-0.61063 0,-0.3358 -0.3942,-0.61063 -0.876,-0.61063 -2.2625,0 -11.0771,-6.96294 -14.606,-11.5377 l -0.9913,-1.2851 h -8.95 -8.9501 v -3.96895 -3.96895 h 28.3397 28.3397 l -0.2007,3.81633 -0.2006,3.81626 -8.9304,-0.2184 -8.9303,-0.2184 v 0.91206 c 0,1.1856 5.7597,3.50914 12.2154,4.92781 0.2314,0.051 0.01,1.46633 -0.5015,3.14546 -0.5071,1.6792 -1.193,4.24486 -1.5241,5.70142 -0.8049,3.54142 -1.1643,3.70885 -5.4719,2.5487 z m 34.7042,-6.52592 c -0.5741,-1.24491 -1.2196,-2.8978 -1.4344,-3.67298 -0.2147,-0.77526 -0.6609,-1.40954 -0.9914,-1.40954 -0.3305,0 -0.6009,-0.28878 -0.6009,-0.64176 0,-0.35291 -1.088,-1.54476 -2.4179,-2.64848 l -2.4179,-2.0068 1.9124,-1.47309 c 6.5094,-5.01408 11.0983,-14.52514 10.1021,-20.93827 -0.6963,-4.48332 -1.7811,-8.54731 -2.3741,-8.89453 -0.3184,-0.18641 -0.7691,-0.89222 -1.0016,-1.56842 -0.5306,-1.54339 -5.5278,-6.39788 -8.0961,-7.86482 l -1.9341,-1.10475 1.6634,-1.00659 c 2.4636,-1.49078 3.9918,-3.02892 5.4382,-5.47379 l 1.2934,-2.18629 -0.3179,-2.99711 c -0.1748,-1.64839 -0.6089,-3.17388 -0.9645,-3.38996 -0.3557,-0.21609 -0.8366,-0.85974 -1.0687,-1.43035 l -0.4221,-1.03747 1.1452,0.38232 c 0.6298,0.21028 1.2968,0.54053 1.4821,0.73389 0.1854,0.19335 1.5502,1.09771 3.033,2.00967 3.5786,2.20096 7.0769,5.13563 7.0769,5.93666 0,0.35476 0.4549,0.64503 1.011,0.64503 0.556,0 1.0109,0.32183 1.0109,0.71518 0,0.39335 0.4206,1.14898 0.9345,1.67918 1.2378,1.27693 5.1303,7.97363 5.1356,8.83523 0,0.37253 0.5283,1.50163 1.169,2.50916 l 1.1648,1.83182 v 12.21217 12.21224 l -1.1648,1.83182 c -0.6407,1.00753 -1.1667,2.31268 -1.169,2.90038 0,0.5877 -0.3074,1.06857 -0.6781,1.06857 -0.3707,0 -0.674,0.34579 -0.674,0.76835 0,1.88523 -8.4967,12.05444 -10.0719,12.05444 -0.3915,0 -0.7119,0.22315 -0.7119,0.49583 0,0.27267 -0.9039,1.1012 -2.0087,1.84116 l -2.0086,1.34534 z m -44.9813,-26.34142 c -2.2961,-1.27474 -2.2631,-3.38528 0.1662,-10.6523 l 0.5637,-1.68603 -1.0035,-0.90912 c -1.7144,-1.55317 -3.7096,-0.34277 -8.321,5.04802 -1.8294,2.13864 -3.9954,2.5482 -5.6326,1.06497 -0.556,-0.50373 -1.2847,-0.91595 -1.6192,-0.91595 -0.3346,0 -0.9919,-0.64952 -1.461,-1.44332 l -0.8526,-1.4434 1.0843,-1.7623 c 1.6337,-2.6551 2.6297,-4.01165 3.9317,-5.3552 1.4797,-1.52679 1.4866,-2.1395 0.03,-2.64597 -3.505,-1.21852 -4.2297,-2.93886 -2.412,-5.72653 l 1.1563,-1.77339 h 1.485 c 1.5347,0 5.8033,1.78673 6.1999,2.59509 0.1236,0.25188 0.5452,0.45796 0.9372,0.45796 0.7215,0 6.6427,2.48896 7.263,3.05308 0.6464,0.58777 6.5565,3.053 7.3192,3.053 0.4228,0 0.7687,0.22329 0.7687,0.49619 0,0.51012 6.2253,3.16752 7.4203,3.16752 0.3671,0 0.6675,0.26952 0.6675,0.59891 0,0.32947 0.7582,0.77145 1.685,0.98216 1.9485,0.44306 1.916,0.32623 0.9246,3.32432 -0.4183,1.26461 -1.4098,2.61419 -2.2034,2.99894 l -1.4429,0.69963 -2.4786,-0.93816 -2.4784,-0.93823 -0.5353,0.75786 c -0.2943,0.41675 -1.3299,2.54381 -2.3013,4.72674 l -1.7662,3.96895 -2.6211,0.11244 c -1.4795,0.0633 -3.4278,-0.33544 -4.4733,-0.91588 z m 8.5513,-22.50337 c -4.7966,-2.23991 -9.6968,-4.5068 -10.8895,-5.03752 l -2.1685,-0.96494 -0.022,-1.2991 c -0.012,-0.71451 0.4331,-1.64117 0.989,-2.05925 0.5561,-0.41808 1.011,-1.04192 1.011,-1.38631 0,-0.94293 17.6384,-32.82441 18.6842,-33.77195 l 0.9071,-0.82181 1.7061,0.58765 c 2.3463,0.80817 2.9662,0.73955 2.9662,-0.32827 0,-0.50375 0.2704,-0.91592 0.601,-0.91592 0.3305,0 0.8004,-0.72012 1.0442,-1.60028 0.2438,-0.88016 0.8834,-1.99888 1.421,-2.48606 0.5378,-0.48717 0.9778,-1.41569 0.9778,-2.06337 0,-0.64768 0.2401,-1.17761 0.5336,-1.17761 0.2934,0 1.0125,-0.95747 1.598,-2.12771 l 1.0645,-2.12771 -0.8298,-0.62391 c -0.9909,-0.74509 -0.5613,-3.35653 0.7094,-4.31197 l 0.9045,-0.68005 6.9402,3.0346 c 3.8172,1.66903 7.4886,3.20064 8.1589,3.40356 l 1.2184,0.36897 -0.2075,2.60068 -0.2075,2.60068 -1.7173,0.1813 -1.7172,0.1813 -1.0586,1.95583 c -0.5823,1.07571 -2.0085,3.6772 -3.1692,5.78108 -2.1826,3.95582 -2.6753,6.24983 -1.3424,6.24983 0.4225,0 1.131,0.44957 1.5745,0.99904 l 0.8063,0.99904 -0.8698,2.28735 c -0.4784,1.25804 -1.4387,3.21274 -2.1341,4.34379 l -1.2643,2.05645 -3.9898,0.31415 c -7.2504,0.57088 -12.4147,5.39323 -12.4147,11.59275 0,2.55453 1.6763,6.71671 2.705,6.71671 0.3657,0 0.6649,0.38927 0.6649,0.86503 0,0.47577 0.3447,0.9691 0.7659,1.0963 l 0.7658,0.23127 -0.7241,1.19348 c -0.3982,0.65643 -1.5099,2.77345 -2.4705,4.7045 -2.1274,4.27664 -1.0473,4.32926 -11.5207,-0.5616 z m 18.8764,-7.20248 -3.3338,-1.50534 -1.2418,-2.59799 -1.2416,-2.598 0.7891,-2.38629 c 0.434,-1.31245 1.7428,-3.17541 2.9084,-4.1399 l 2.1193,-1.75363 h 3.2842 c 10.5086,0 12.6891,11.87345 2.8635,15.59278 -2.9018,1.09842 -2.2071,1.16754 -6.1473,-0.61163 z"
       id="path16" /><path
       style="fill:#000000"
       id="path21" /><path
       style="fill:#000000"
       id="path20" /><path
       style="fill:#000000"
       id="path19" /><path
       style="fill:#000000"
       id="path18" /><path
       style="fill:#000000;stroke-width:0.395627"
       d="m 1420.1979,363.49002 c 1.3827,0.42865 4.6416,2.42299 4.9991,3.05939 0.1248,0.22266 0.4009,0.3131 0.6131,0.20124 l 0.3855,-0.20342 -0.033,0.60678 c -0.018,0.33374 0.1018,0.61542 0.267,0.62603 0.5732,0.0385 2.0696,2.86696 2.6918,5.09168 0.9695,3.46731 0.4587,6.75307 -1.5713,10.10584 l -0.6826,1.1273 5.368,6.33453 c 2.9525,3.48388 5.4863,6.28115 5.6306,6.21596 0.1443,-0.0652 0.3408,0.25295 0.4367,0.70686 l 0.1746,0.82513 0.506,-0.26697 0.5061,-0.26691 -0.2803,0.391 -0.2803,0.3911 0.5476,0.49331 0.548,0.49321 1.9743,-0.73162 1.9744,-0.73171 3.2251,0.16934 3.2251,0.16934 1.4834,0.69888 c 0.816,0.38433 2.2902,1.29307 3.2761,2.01944 l 1.7928,1.32059 1.7425,-0.80475 c 0.9584,-0.44266 1.6774,-0.92043 1.598,-1.06174 -0.08,-0.14132 0.074,-0.2495 0.3397,-0.24035 0.5217,0.0181 5.6506,-2.52056 5.6661,-2.80437 0.01,-0.0942 -0.1526,-0.97571 -0.3508,-1.95877 l -0.3602,-1.78735 0.6262,-2.17708 c 0.3446,-1.19742 1.0814,-2.94607 1.6376,-3.88598 l 1.0111,-1.70884 2.0628,-1.67596 2.063,-1.67597 2.346,-0.70892 2.3461,-0.70903 2.583,0.14203 2.583,0.14203 1.6762,0.74798 c 2.7262,1.21654 4.4703,2.58777 6.0416,4.74981 l 1.4789,2.03486 0.5144,2.13777 c 0.2833,1.17572 0.4607,3.11138 0.3953,4.3013 l -0.119,2.16341 -0.9755,2.2057 -0.9758,2.20566 -2.3737,2.02661 -2.3738,2.02653 -2.3887,0.73706 -2.3886,0.73696 -2.7629,-0.15192 -2.7628,-0.15192 -1.6766,-0.74065 c -0.9221,-0.40743 -2.4805,-1.37157 -3.4632,-2.14249 l -1.7867,-1.40185 -4.4982,2.33869 c -2.4739,1.28624 -4.5281,2.35917 -4.5648,2.38423 -0.037,0.025 0.076,1.00745 0.2493,2.18321 l 0.3158,2.13771 -0.5674,2.06845 c -0.583,2.1253 -2.3118,5.43923 -2.8227,5.41114 -0.1577,-0.009 -0.4052,0.24139 -0.55,0.55577 l -0.2631,0.57153 0.8664,1.39682 c 0.4765,0.76822 1.0007,1.27994 1.165,1.13712 0.1643,-0.14277 0.2271,-0.0587 0.1402,0.18721 -0.1816,0.51167 1.5032,3.72609 1.9664,3.75156 0.1684,0.009 0.297,0.18618 0.2856,0.39319 -0.039,0.70621 4.8388,8.94651 5.1947,8.77615 0.087,-0.0419 0.1166,-0.012 0.065,0.0665 -0.2014,0.30987 1.0023,2.44547 1.3904,2.46682 0.2279,0.0125 0.3221,0.15145 0.2095,0.30865 -0.1129,0.15718 0.01,0.60309 0.2706,0.99014 l 0.4727,0.70507 2.1572,-0.2757 2.1573,-0.27572 2.0164,0.36006 c 1.1088,0.19814 2.9377,0.83915 4.0641,1.42457 l 2.0479,1.06437 1.6602,1.79897 c 0.9131,0.98936 2.0447,2.66481 2.5146,3.72312 l 0.8544,1.92441 -0.2033,3.69747 -0.2033,3.69748 -1.0218,1.76599 c -2.0728,3.58244 -6.0986,6.21052 -10.3448,6.75325 l -2.0369,0.26034 -2.2113,-0.41589 -2.2112,-0.4159 -2.2191,-1.24547 -2.2188,-1.24543 -1.3418,-1.61081 c -0.7382,-0.88591 -1.7346,-2.57792 -2.2148,-3.75994 l -0.8727,-2.1492 0.1693,-3.08056 0.1695,-3.08057 0.9476,-1.80905 c 0.5212,-0.99506 1.4086,-2.33374 1.972,-2.97498 l 1.0245,-1.16587 -1.6978,-2.99166 c -0.9339,-1.64543 -1.8746,-3.18994 -2.0907,-3.43234 -0.2161,-0.24241 -0.7142,-1.10422 -1.107,-1.91516 -0.3928,-0.81098 -0.8535,-1.48215 -1.0239,-1.49154 -0.1704,-0.009 -0.3006,-0.18477 -0.2893,-0.38971 0.019,-0.33481 -2.4148,-4.57864 -4.9133,-8.56961 l -0.9409,-1.50285 -1.6987,0.47936 c -2.8494,0.80405 -7.558,-0.0139 -9.4628,-1.64395 l -0.5177,-0.44301 -3.3078,3.11824 c -1.8194,1.71508 -3.2303,3.25862 -3.1357,3.4302 0.095,0.17156 0.01,0.25457 -0.1982,0.18425 -0.3369,-0.11596 -3.1729,2.40013 -6.864,6.08976 l -1.4218,1.42135 0.4892,0.86088 c 4.121,7.25206 -1.5547,17.1851 -10.5535,18.46967 l -2.5334,0.36164 -2.4786,-0.63334 c -1.3632,-0.34828 -2.867,-0.90702 -3.3416,-1.24148 l -0.8632,-0.6082 -4.5698,4.14422 c -2.5133,2.27931 -5.9736,5.42395 -7.6892,6.98805 l -3.1196,2.84392 0.7849,2.10266 0.7849,2.10275 0.082,2.39091 0.082,2.39082 -0.8217,2.05789 c -1.4969,3.7485 -4.3702,6.5001 -8.2599,7.91027 l -1.8331,0.66458 -3.6212,-0.20611 -3.6211,-0.20613 -1.9082,-1.01171 -1.9082,-1.01167 -1.8145,-1.96613 -1.8146,-1.96616 -0.8187,-1.95142 -0.8187,-1.95141 0.2027,-3.50226 0.2026,-3.50234 1.4835,-2.37204 c 1.6834,-2.6915 3.3685,-4.1167 6.468,-5.47053 l 2.1481,-0.93827 3.6093,0.18226 3.6094,0.18224 1.8405,0.95008 1.8405,0.9501 2.2497,-2.19794 c 1.2373,-1.20881 3.3415,-3.13044 4.676,-4.27009 1.3345,-1.13972 2.439,-2.30471 2.4547,-2.5889 0.015,-0.28408 0.2029,-0.46312 0.4161,-0.39774 0.4415,0.13531 5.0589,-4.09555 5.0903,-4.66386 0.011,-0.20442 -0.316,-1.15076 -0.7274,-2.10304 l -0.7478,-1.73144 -0.089,-2.33221 -0.089,-2.3323 0.621,-1.82954 c 1.3436,-3.95825 4.2931,-6.96115 8.3536,-8.50465 l 2.2057,-0.83845 1.1169,-20.31057 1.1168,-20.31045 -1.863,-0.76747 -1.863,-0.76752 -1.7684,1.74205 c -0.9726,0.95813 -2.7412,2.62653 -3.9302,3.70767 l -2.1618,1.96572 0.2409,0.42886 0.241,0.42895 -0.394,-0.26691 -0.3941,-0.26692 -1.8276,1.74357 c -1.005,0.95889 -2.4784,2.34489 -3.2742,3.07996 l -1.447,1.33635 0.831,1.75281 0.8309,1.75281 -0.2033,3.6974 -0.2033,3.69745 -1.1679,1.88773 c -2.1836,3.52989 -5.1349,5.59319 -9.3485,6.536 l -2.3589,0.52784 -2.0821,-0.3249 c -1.1452,-0.17868 -2.8442,-0.69811 -3.7758,-1.15426 l -1.6936,-0.82941 -2.987,2.91807 c -1.6427,1.60494 -2.9468,3.09274 -2.8978,3.30626 0.046,0.21439 -0.072,0.27907 -0.2685,0.14587 l -0.3578,-0.24227 -2.9934,2.88778 -2.9935,2.88788 0.6361,1.17752 c 2.2078,4.08682 1.7047,9.08399 -1.335,13.25748 l -1.4275,1.95988 -1.7223,1.07485 c -0.9473,0.59116 -2.7612,1.39211 -4.0312,1.77988 l -2.3088,0.70493 -2.7972,-0.3242 -2.7973,-0.32418 -1.8467,-0.91806 c -1.6759,-0.83316 -5.7491,-3.89096 -5.3664,-4.02863 0.088,-0.0314 -0.1695,-0.64447 -0.5632,-1.36426 l -0.7221,-1.30708 -0.346,0.27235 -0.3462,0.27238 0.2692,-0.40655 c 0.1481,-0.22356 0.054,-1.26684 -0.2102,-2.31827 -1.6435,-6.55381 2.7491,-13.59606 9.6284,-15.43655 l 1.953,-0.52279 2.5772,0.14174 2.5773,0.14171 1.9915,0.89032 c 1.0954,0.48961 2.0453,0.8932 2.1108,0.89681 0.066,0.004 2.5859,-2.34784 5.601,-5.2254 3.015,-2.87765 5.7464,-5.4628 6.0699,-5.74474 l 0.5879,-0.51272 -0.7425,-1.67238 c -0.4084,-0.91982 -0.9127,-2.52602 -1.1207,-3.56922 l -0.3781,-1.89678 0.3414,-1.91576 0.3413,-1.91575 1.3543,-2.41055 1.3543,-2.41048 1.7391,-1.36377 c 0.9564,-0.74999 2.7373,-1.74321 3.9576,-2.2071 l 2.2187,-0.84339 3.095,0.16317 3.095,0.16318 2.1247,0.95782 2.1247,0.95788 2.2359,-2.12293 2.2358,-2.12291 -0.2155,-0.38335 -0.2154,-0.38341 0.4032,0.27307 0.4031,0.27307 1.4323,-1.44052 c 0.7878,-0.79227 2.9971,-2.92138 4.9096,-4.73131 l 3.4772,-3.29081 -0.6435,-1.17801 c -0.354,-0.64791 -0.8361,-2.02724 -1.0714,-3.06529 l -0.4279,-1.88723 0.3513,-2.35486 0.3512,-2.35478 1.3898,-2.40344 1.3898,-2.40344 1.7072,-1.26669 c 0.939,-0.69674 2.5596,-1.60051 3.6014,-2.00831 l 1.8943,-0.74162 3.0255,0.0291 c 1.664,0.016 3.5892,0.20439 4.2782,0.41743 z m -0.1382,25.05412 -1.5296,0.39388 -1.131,20.56626 -1.1309,20.56626 0.5879,0.0323 c 0.3232,0.0178 1.1763,0.34512 1.8956,0.72732 l 1.3079,0.69501 2.7607,-2.52077 c 1.5184,-1.38643 4.8247,-4.48226 7.3472,-6.87954 l 4.5865,-4.35879 -0.8498,-2.04199 -0.8497,-2.04204 0.2261,-3.53121 0.2263,-3.53128 0.9406,-1.69292 0.9408,-1.69292 -1.7716,-2.06792 c -0.9742,-1.13747 -3.7274,-4.3452 -6.118,-7.12844 -2.3905,-2.78325 -4.4825,-5.32073 -4.6488,-5.63883 -0.1664,-0.31809 -0.5182,-0.50389 -0.7817,-0.41284 -0.2635,0.091 -1.1675,0.34242 -2.0089,0.55888 z"
       id="path22" /></g></svg>
